{"title":"Killer On The Line - S01E04 - Jennifer Pan","uid":15897900,"size":352966877,"categoryP":"video","categoryS":"tv_shows","magnet":"?xt=urn:btih:aacb8c49e94a7d721cf8f9467a6504b65a1233cf&amp;dn=Killer+On+The+Line+-+S01E04+-+Jennifer+Pan&amp;tr=udp%3A%2F%2Ftracker.leechers-paradise.org%3A6969&amp;tr=udp%3A%2F%2Fzer0day.ch%3A1337&amp;tr=udp%3A%2F%2Fopen.demonii.com%3A1337&amp;tr=udp%3A%2F%2Ftracker.coppersurfer.tk%3A6969&amp;tr=udp%3A%2F%2Fexodus.desync.com%3A6969","seeders":10,"leechers":6,"uploader":"Bullrout","files":1,"time":1474978165,"description":"Killer On The Line - S01E04 - Jennifer Pan\r\n\r\nThis series looks at murders that were callously planned and premeditated, with the emergency calls originating from the killer themselves. Jennifer Pan was found guilty of staging a home invasion with the intention of killing her own parents.\r\n\r\nComplete name : Killer On The Line - S01E04 - Jennifer Pan.mp4\r\nFormat : MPEG-4\r\nFormat profile : Base Media / Version 2\r\nCodec ID : mp42 (mp42/isom/avc1)\r\nFile size : 337 MiB\r\nDuration : 42 min 58 s\r\nOverall bit rate mode : Variable\r\nOverall bit rate : 1 095 kb/s\r\n\r\nVideo\r\nID : 2\r\nFormat : AVC\r\nFormat/Info : Advanced Video Codec\r\nFormat profile :   \r\nFormat settings, CABAC : Yes\r\nFormat settings, ReFrames : 3 frames\r\nCodec ID : avc1\r\nCodec ID/Info : Advanced Video Coding\r\nDuration : 42 min 58 s\r\nBit rate mode : Variable\r\nBit rate : 964 kb/s\r\nMaximum bit rate : 1 000 kb/s\r\nWidth : 720 pixels\r\nHeight : 404 pixels\r\nDisplay aspect ratio : 16:9\r\nOriginal display aspect ratio : 16:9\r\nFrame rate mode : Constant\r\nFrame rate : 25.000 FPS\r\nStandard : PAL\r\nColor space : YUV\r\nChroma subsampling : 4:2:0\r\nBit depth : 8 bits\r\nScan type : Progressive\r\nBits/(Pixel*Frame) : 0.133\r\nStream size : 296 MiB (88%)\r\nWriting library : x264 core 112\r\nColor range : Limited\r\nColor primaries : BT.601 PAL\r\nTransfer characteristics : BT.470 System B, BT.470 System G\r\nMatrix coefficients : BT.601\r\n\r\nAudio\r\nID : 1\r\nFormat : AAC\r\nFormat/Info : Advanced Audio Codec\r\nFormat profile : LC\r\nCodec ID : 40\r\nDuration : 42 min 58 s\r\nBit rate mode : Variable\r\nBit rate : 128 kb/s\r\nMaximum bit rate : 576 kb/s\r\nChannel(s) : 2 channels\r\nChannel positions : Front: L R\r\nSampling rate : 48.0 kHz\r\nFrame rate : 46.875 FPS (1024 spf)\r\nCompression mode : Lossy\r\nStream size : 39.4 MiB (12%)","torrent":{"xt":"urn:btih:aacb8c49e94a7d721cf8f9467a6504b65a1233cf","amp;dn":"Killer+On+The+Line+-+S01E04+-+Jennifer+Pan","amp;tr":["udp%3A%2F%2Ftracker.leechers-paradise.org%3A6969","udp%3A%2F%2Fzer0day.ch%3A1337","udp%3A%2F%2Fopen.demonii.com%3A1337","udp%3A%2F%2Ftracker.coppersurfer.tk%3A6969","udp%3A%2F%2Fexodus.desync.com%3A6969"],"infoHash":"aacb8c49e94a7d721cf8f9467a6504b65a1233cf","infoHashBuffer":{"type":"Buffer","data":[170,203,140,73,233,74,125,114,28,248,249,70,122,101,4,182,90,18,51,207]},"announce":[],"urlList":[]}}